# xmcd
#
# Track frame offsets: 
#        150
#        15258
#        31652
#        50472
#        69018
#        82855
#        101035
#        118364
#        132460
#        146105
#
# Disc length: 2402 seconds
#
# Revision: 0
# Processed by: cddbd v1.5.2PL0 Copyright (c) Steve Scherf et al.
# Submitted via: ExactAudioCopy v1.1
#
DISCID=7d09600a
DTITLE=Alabama - 40 Hour Week (Remastered)
DYEAR=1985
DGENRE=Country
TTITLE0=Fourty Hour Week (For  A Livin')
TTITLE1=Can't Keep A Good Man Down
TTITLE2=There's No Way
TTITLE3=Down On Longboat Key
TTITLE4=Louisiana Moon
TTITLE5=I Want To Know You Before We Make Love
TTITLE6=Fireworks
TTITLE7=She Won't Have A Thing To Do With Nobody But Me
TTITLE8=As Right Now
TTITLE9=If It Ain't Dixie (It Won't Do)
EXTD=
EXTT0=
EXTT1=
EXTT2=
EXTT3=
EXTT4=
EXTT5=
EXTT6=
EXTT7=
EXTT8=
EXTT9=
PLAYORDER=
